#!OML:ASF F:\VICON\USERDATA\INSTALL\rory3\rory3.ASF
:FULLY-SPECIFIED
:DEGREES
3716
root 12.7445 17.896 2.38819 10.219 -31.9715 17.2261
lowerback 16.4027 2.23973 2.41869
upperback 8.22978 3.22712 8.98608
thorax -0.776734 1.40087 7.683
lowerneck -10.103 -11.7771 -11.5832
upperneck 29.3298 -16.2406 5.50351
head 12.893 -7.73481 1.61043
rclavicle -3.81667e-014 -1.01778e-013
rhumerus -5.44932 20.3982 -93.9713
rradius 35.415
rwrist -35.9733
rhand -26.5158 -25.3554
rfingers 7.12502
rthumb 0.0475488 -55.3351
lclavicle -3.81667e-014 -1.01778e-013
lhumerus -26.7047 -35.7383 101.939
lradius 49.4685
lwrist 20.876
lhand -9.28922 53.5356
lfingers 7.12502
lthumb 16.668 -1717.16
rfemur -44.036 -3.66257 8.32855
rtibia 37.6408
rfoot -17.4247 -15.7739
rtoes 17.2615
lfemur -17.3737 0.0534244 -31.7068
ltibia 31.1985
lfoot -9.75086 -16.731
ltoes -32.7963
3717
root 12.7773 17.899 2.3584 10.3457 -31.7938 17.1097
lowerback 16.4768 2.59002 2.96313
upperback 8.19963 3.76438 8.80415
thorax -0.866169 1.68698 7.06463
lowerneck -10.2944 -12.2665 -10.5382
upperneck 29.3274 -17.173 5.58302
head 12.9204 -8.00534 1.31235
rclavicle 5.40694e-014 6.36111e-014
rhumerus -5.65271 17.9065 -94.4087
rradius 35.2153
rwrist -32.7189
rhand -25.2413 -28.7309
rfingers 7.12502
rthumb 1.27851 -58.7069
lclavicle 5.40694e-014 6.36111e-014
lhumerus -27.6848 -37.2338 101.889
lradius 49.7734
lwrist 21.8625
lhand -9.66579 53.6003
lfingers 7.12502
lthumb 16.3055 -1717.07
rfemur -44.1024 -3.57703 8.30037
rtibia 37.472
rfoot -17.181 -15.9198
rtoes 17.2184
lfemur -17.371 0.10411 -31.7524
ltibia 31.3571
lfoot -9.5807 -17.3841
ltoes -33.0524
3718
root 12.8065 17.9003 2.32874 10.3229 -31.9048 17.0861
lowerback 16.5219 2.40888 2.53612
upperback 8.15742 3.4838 9.21496
thorax -0.952867 1.52892 7.81802
lowerneck -9.76398 -11.9906 -11.7214
upperneck 29.2048 -16.6584 5.86876
head 12.8693 -7.89494 1.71545
rclavicle -6.36111e-015 -5.725e-014
rhumerus -6.35014 18.3664 -94.4759
rradius 35.0214
rwrist -29.9382
rhand -22.6317 -31.2101
rfingers 7.12502
rthumb 3.79875 -61.156
lclavicle -6.36111e-015 -5.725e-014
lhumerus -28.5515 -35.4269 102.247
lradius 49.9274
lwrist 22.1001
lhand -9.70798 53.7052
lfingers 7.12502
lthumb 16.2648 -1716.96
rfemur -44.1525 -3.30237 8.17994
rtibia 37.3216
rfoot -17.0144 -16.0206
rtoes 16.9605
lfemur -17.2621 0.309781 -31.9222
ltibia 31.4665
lfoot -9.47616 -17.9871
ltoes -33.6214
3719
root 12.8372 17.8985 2.28904 10.3844 -31.906 17.0991
lowerback 16.4482 2.45757 2.39276
upperback 8.22626 3.51653 9.34214
thorax -0.859401 1.53706 8.04115
lowerneck -9.76499 -12.0361 -11.918
upperneck 29.1343 -16.7197 6.01768
head 12.8845 -7.9238 1.78859
rclavicle -5.40694e-014 -6.36111e-015
rhumerus -6.41925 17.608 -94.5181
rradius 34.7806
rwrist -27.2047
rhand -19.5858 -32.8424
rfingers 7.12502
rthumb 6.7397 -62.7152
lclavicle -5.40694e-014 -6.36111e-015
lhumerus -28.9253 -34.9484 102.159
lradius 50.0765
lwrist 22.1929
lhand -9.63402 53.8229
lfingers 7.12502
lthumb 16.3361 -1716.85
rfemur -44.3396 -3.08822 8.01977
rtibia 37.1952
rfoot -17.1557 -16.1456
rtoes 17.3438
lfemur -17.2972 0.372933 -32.0729
ltibia 31.5643
lfoot -9.02596 -18.7195
ltoes -33.1952
3720
root 12.8687 17.897 2.25702 10.2918 -31.8752 17.2152
lowerback 16.3212 2.4742 2.2617
upperback 8.37753 3.49495 9.41136
thorax -0.638396 1.51645 8.20645
lowerneck -9.81486 -12.0841 -12.0796
upperneck 29.0403 -16.7898 6.19029
head 12.9 -7.94877 1.86091
rclavicle -5.40694e-014 -1.24042e-013
rhumerus -6.28728 17.1131 -94.4181
rradius 34.5621
rwrist -24.9436
rhand -17.2284 -34.1668
rfingers 7.12502
rthumb 9.01491 -63.9542
lclavicle -5.40694e-014 -1.24042e-013
lhumerus -29.1497 -34.7798 102.054
lradius 50.236
lwrist 22.0968
lhand -9.79278 53.804
lfingers 7.12502
lthumb 16.1832 -1716.85
rfemur -44.3867 -2.99176 7.77815
rtibia 37.0653
rfoot -17.1872 -16.2472
rtoes 17.1703
lfemur -17.1388 0.381337 -32.3285
ltibia 31.6207
lfoot -8.74099 -19.3085
ltoes -33.4161
3721
root 12.9023 17.898 2.22703 10.2162 -31.7502 17.1757
lowerback 16.3909 2.44877 2.30125
upperback 8.41073 3.46918 9.49646
thorax -0.637791 1.50153 8.28305
lowerneck -9.63722 -12.0968 -12.1017
upperneck 28.9036 -16.8352 6.28084
head 12.8242 -7.9679 1.90289
rclavicle -4.77083e-014 -1.62208e-013
rhumerus -6.15154 16.5095 -94.3411
rradius 34.2487
rwrist -22.9334
rhand -15.4607 -34.894
rfingers 7.12502
rthumb 10.7204 -64.6004
lclavicle -4.77083e-014 -1.62208e-013
lhumerus -29.4389 -34.8227 102.072
lradius 50.3353
lwrist 22.2257
lhand -9.82817 53.8903
lfingers 7.12502
lthumb 16.1491 -1716.76
rfemur -44.3275 -2.88501 7.67326
rtibia 36.9334
rfoot -17.1181 -16.4642
rtoes 16.475
lfemur -16.9156 0.298973 -32.43
ltibia 31.6363
lfoot -7.8451 -19.7621
ltoes -32.7409
3722
root 12.9367 17.8986 2.19494 10.1992 -31.5378 16.9752
lowerback 16.5129 2.3945 2.51146
upperback 8.45003 3.43151 9.59605
thorax -0.646985 1.48402 8.27771
lowerneck -9.58118 -12.1165 -12.0108
upperneck 28.8475 -16.8769 6.26659
head 12.7826 -7.98051 1.88161
rclavicle -2.8625e-014 -2.22639e-014
rhumerus -5.90883 15.8444 -94.2094
rradius 34.0345
rwrist -21.4416
rhand -13.9947 -35.2457
rfingers 7.12502
rthumb 12.1342 -64.8738
lclavicle -2.8625e-014 -2.22639e-014
lhumerus -29.5043 -35.0348 102.014
lradius 50.4419
lwrist 22.6053
lhand -9.71014 53.8509
lfingers 7.12502
lthumb 16.2628 -1716.81
rfemur -44.2215 -2.87526 7.7533
rtibia 36.8116
rfoot -17.101 -16.5193
rtoes 16.8263
lfemur -16.7128 0.140484 -32.3656
ltibia 31.6193
lfoot -6.17175 -20.0998
ltoes -30.6891
3723
root 12.9706 17.8965 2.16164 10.1712 -31.3822 16.8234
lowerback 16.5784 2.30428 2.59465
upperback 8.50907 3.32366 9.70222
thorax -0.603704 1.42728 8.36914
lowerneck -9.56455 -12.0682 -12.2068
upperneck 28.8485 -16.7995 6.36742
head 12.8033 -7.95611 1.96206
rclavicle 0 -5.725e-014
rhumerus -5.69701 15.6001 -93.9756
rradius 34.0526
rwrist -20.7107
rhand -12.9895 -35.7979
rfingers 7.12502
rthumb 13.1033 -65.3662
lclavicle 0 -5.725e-014
lhumerus -29.4065 -35.1428 101.934
lradius 50.5653
lwrist 22.9097
lhand -9.59514 53.7519
lfingers 7.12502
lthumb 16.3735 -1716.92
rfemur -44.1488 -2.77013 7.75493
rtibia 36.6837
rfoot -17.0327 -16.6428
rtoes 17.1106
lfemur -16.505 0.0933597 -32.3603
ltibia 31.5742
lfoot -5.03645 -20.3704
ltoes -29.9499
3724
root 13.0043 17.8942 2.10944 10.2207 -31.0034 16.7859
lowerback 16.6997 2.21871 2.53425
upperback 8.43726 3.22661 9.83085
thorax -0.741332 1.37794 8.5638
lowerneck -9.4599 -12.0344 -12.3485
upperneck 28.8598 -16.7364 6.37338
head 12.7956 -7.94571 2.00283
rclavicle 3.18055e-015 -2.54444e-014
rhumerus -5.43715 15.232 -93.6333
rradius 34.1429
rwrist -20.4712
rhand -12.6509 -36.1647
rfingers 7.12502
rthumb 13.4297 -65.7118
lclavicle 3.18055e-015 -2.54444e-014
lhumerus -29.1613 -35.3452 101.942
lradius 50.6066
lwrist 22.9912
lhand -9.54603 53.708
lfingers 7.12502
lthumb 16.4208 -1716.97
rfemur -44.19 -2.5084 7.53569
rtibia 36.567
rfoot -17.319 -17.1731
rtoes 17.3987
lfemur -16.4832 0.0974446 -32.3628
ltibia 31.5048
lfoot -3.83425 -20.9461
ltoes -29.0454
3725
root 13.0397 17.8966 2.07335 10.2197 -30.7255 16.74
lowerback 16.7792 2.35454 2.85348
upperback 8.44373 3.45323 9.73708
thorax -0.782935 1.50207 8.22687
lowerneck -9.65729 -12.2909 -11.6868
upperneck 28.9341 -17.1609 6.16315
head 12.8183 -8.07363 1.74049
rclavicle 1.01778e-013 8.26944e-014
rhumerus -4.81121 13.79 -93.2978
rradius 34.2244
rwrist -20.5591
rhand -12.7939 -35.8296
rfingers 7.12502
rthumb 13.2918 -65.3858
lclavicle 1.01778e-013 8.26944e-014
lhumerus -28.718 -36.6979 101.852
lradius 50.7503
lwrist 23.1201
lhand -9.65657 53.7702
lfingers 7.12502
lthumb 16.3143 -1716.9
rfemur -44.1687 -2.368 7.35009
rtibia 36.4651
rfoot -17.6469 -17.4786
rtoes 17.491
lfemur -16.3817 -0.0565591 -32.4051
ltibia 31.4346
lfoot -2.72339 -21.3494
ltoes -26.9803
3726
root 13.0761 17.8948 2.04119 10.1079 -30.5871 16.7111
lowerback 16.9616 2.62056 3.25661
upperback 8.54089 3.8548 9.50562
thorax -0.783619 1.71557 7.65512
lowerneck -10.1307 -12.7159 -10.8003
upperneck 29.0707 -17.9011 6.09146
head 12.9422 -8.28456 1.42111
rclavicle 9.54166e-015 -2.8625e-014
rhumerus -4.03262 12.1099 -92.9429
rradius 34.5196
rwrist -21.2726
rhand -13.0423 -34.8792
rfingers 7.12502
rthumb 13.0524 -64.4508
lclavicle 9.54166e-015 -2.8625e-014
lhumerus -27.9565 -38.5949 101.59
lradius 50.8205
lwrist 23.1724
lhand -9.73995 53.8011
lfingers 7.12502
lthumb 16.2341 -1716.86
rfemur -44.097 -2.27528 7.22068
rtibia 36.3813
rfoot -17.7564 -17.6463
rtoes 17.5079
lfemur -16.1464 -0.120826 -32.5193
ltibia 31.3811
lfoot -2.27245 -21.6682
ltoes -25.7433
3727
root 13.1179 17.8877 1.99563 10.1414 -30.084 16.619
lowerback 17.0087 2.41274 3.47834
upperback 8.53761 3.62205 9.53347
thorax -0.772208 1.60488 7.60106
lowerneck -10.1223 -12.688 -10.8766
upperneck 29.0335 -17.8683 6.187
head 12.9415 -8.26827 1.47394
rclavicle 3.18055e-014 -2.54444e-014
rhumerus -3.46654 12.0228 -92.4925
rradius 34.8782
rwrist -22.6616
rhand -14.4682 -34.1206
rfingers 7.12502
rthumb 11.6776 -63.7752
lclavicle 3.18055e-014 -2.54444e-014
lhumerus -27.014 -39.0116 101.403
lradius 50.7029
lwrist 23.065
lhand -9.73471 53.6241
lfingers 7.12502
lthumb 16.2391 -1717.04
rfemur -44.0994 -2.22329 7.08185
rtibia 36.3314
rfoot -17.9352 -18.134
rtoes 17.622
lfemur -16.0695 -0.242973 -32.5394
ltibia 31.3203
lfoot -1.94932 -22.0506
ltoes -26.2455
3728
root 13.1588 17.8843 1.95562 10.1604 -29.5118 16.4215
lowerback 16.9772 1.67702 3.326
upperback 8.4137 2.664 9.98156
thorax -0.803661 1.11484 8.37363
lowerneck -9.36496 -12.0358 -12.3137
upperneck 28.919 -16.6884 6.14555
head 12.7674 -7.94877 1.92767
rclavicle -6.04305e-014 -4.45278e-014
rhumerus -3.38329 14.1181 -91.8403
rradius 35.2636
rwrist -24.83
rhand -16.7173 -33.511
rfingers 7.12502
rthumb 9.50813 -63.2765
lclavicle -6.04305e-014 -4.45278e-014
lhumerus -26.2206 -37.2368 101.609
lradius 50.4904
lwrist 22.6715
lhand -9.79753 53.4955
lfingers 7.12502
lthumb 16.1786 -1717.16
rfemur -44.0152 -2.24207 7.06446
rtibia 36.3443
rfoot -18.0645 -18.6203
rtoes 17.9341
lfemur -15.8948 -0.318817 -32.4569
ltibia 31.1932
lfoot -1.72233 -22.4541
ltoes -28.0526
